<?xml version="1.0" encoding="UTF-8" standalone="no"?>
<!-- Created with Inkscape (http://www.inkscape.org/) -->

<svg
   xmlns:dc="http://purl.org/dc/elements/1.1/"
   xmlns:cc="http://creativecommons.org/ns#"
   xmlns:rdf="http://www.w3.org/1999/02/22-rdf-syntax-ns#"
   xmlns:svg="http://www.w3.org/2000/svg"
   xmlns="http://www.w3.org/2000/svg"
   xmlns:sodipodi="http://sodipodi.sourceforge.net/DTD/sodipodi-0.dtd"
   xmlns:inkscape="http://www.inkscape.org/namespaces/inkscape"
   version="1.1"
   id="svg2"
   width="32"
   height="32"
   viewBox="0 0 32 32"
   sodipodi:docname="default-user-image.svg"
   inkscape:version="0.92.4 (5da689c313, 2019-01-14)">
  <metadata
     id="metadata8">
    <rdf:RDF>
      <cc:Work
         rdf:about="">
        <dc:format>image/svg+xml</dc:format>
        <dc:type
           rdf:resource="http://purl.org/dc/dcmitype/StillImage" />
        <dc:title></dc:title>
      </cc:Work>
    </rdf:RDF>
  </metadata>
  <defs
     id="defs6" />
  <sodipodi:namedview
     pagecolor="#ffffff"
     bordercolor="#666666"
     borderopacity="1"
     objecttolerance="10"
     gridtolerance="10"
     guidetolerance="10"
     inkscape:pageopacity="0"
     inkscape:pageshadow="2"
     inkscape:window-width="2560"
     inkscape:window-height="1377"
     id="namedview4"
     showgrid="false"
     inkscape:zoom="11.313709"
     inkscape:cx="33.904145"
     inkscape:cy="13.777494"
     inkscape:window-x="-8"
     inkscape:window-y="32"
     inkscape:window-maximized="1"
     inkscape:current-layer="svg2"
     fit-margin-top="0"
     fit-margin-left="0"
     fit-margin-right="0"
     fit-margin-bottom="0"
     inkscape:object-nodes="false"
     inkscape:snap-nodes="false"
     inkscape:snap-others="false" />
  <g
     id="g4602"
     transform="scale(1.0666667,1.0639239)">
    <path
       id="rect823"
       d="M 15,0 A 15,15 0 0 0 0,15 15,15 0 0 0 15,30 15,15 0 0 0 30,15 15,15 0 0 0 15,0 Z"
       style="fill:#f5f6fa;fill-opacity:1;stroke:none;stroke-width:0.53149611;stroke-linecap:butt;stroke-linejoin:miter;stroke-miterlimit:4;stroke-dasharray:none;stroke-opacity:1;paint-order:markers fill stroke"
       inkscape:connector-curvature="0" />
    <path
       id="rect847"
       d="M 25.599609,4.4003906 4.4003906,25.599609 A 15,15 0 0 0 15,30 15,15 0 0 0 30,15 15,15 0 0 0 25.599609,4.4003906 Z"
       style="fill:#dcdde1;fill-opacity:1;stroke:none;stroke-width:0.53149611;stroke-linecap:butt;stroke-linejoin:miter;stroke-miterlimit:4;stroke-dasharray:none;stroke-opacity:1;paint-order:markers fill stroke"
       inkscape:connector-curvature="0" />
    <path
       id="path819"
       d="M 14.966797,5.4160156 A 6.8763139,6.8763139 0 0 0 8.0898438,12.292969 6.8763139,6.8763139 0 0 0 11.21875,18.050781 11.370637,14.247003 0 0 0 4.5703125,25.759766 15,15 0 0 0 15,30 a 15,15 0 0 0 10.380859,-4.177734 11.370637,14.247003 0 0 0 -6.666015,-7.767578 6.8763139,6.8763139 0 0 0 3.126953,-5.761719 6.8763139,6.8763139 0 0 0 -6.875,-6.8769534 z"
       style="fill:#7f8fa6;fill-opacity:1;stroke:none;stroke-width:0.53149611;stroke-linecap:butt;stroke-linejoin:miter;stroke-miterlimit:4;stroke-dasharray:none;stroke-opacity:1;paint-order:markers fill stroke"
       inkscape:connector-curvature="0" />
    <path
       id="path852"
       d="M 21.001953,8.9980469 4.765625,25.294165 A 11.370637,14.299468 0 0 0 4.5820312,25.831292 15,15.055238 0 0 0 15,30.07734 15,15.055238 0 0 0 25.380859,25.884221 11.370637,14.299468 0 0 0 18.714844,18.088039 6.8763139,6.901636 0 0 0 21.841797,12.305103 6.8763139,6.901636 0 0 0 21.001953,8.9980469 Z"
       style="fill:#718093;fill-opacity:1;stroke:none;stroke-width:0.5324738;stroke-linecap:butt;stroke-linejoin:miter;stroke-miterlimit:4;stroke-dasharray:none;stroke-opacity:1;paint-order:markers fill stroke"
       inkscape:connector-curvature="0" />
  </g>
  <g
     id="g4884"
     transform="scale(1.0666667,1.0639239)">
    <path
       inkscape:connector-curvature="0"
       style="fill:#f5f6fa;fill-opacity:1;stroke:none;stroke-width:0.53149611;stroke-linecap:butt;stroke-linejoin:miter;stroke-miterlimit:4;stroke-dasharray:none;stroke-opacity:1;paint-order:markers fill stroke"
       d="M 15,0 A 15,15 0 0 0 0,15 15,15 0 0 0 15,30 15,15 0 0 0 30,15 15,15 0 0 0 15,0 Z"
       id="path4876" />
    <path
       inkscape:connector-curvature="0"
       style="fill:#dcdde1;fill-opacity:1;stroke:none;stroke-width:0.53149611;stroke-linecap:butt;stroke-linejoin:miter;stroke-miterlimit:4;stroke-dasharray:none;stroke-opacity:1;paint-order:markers fill stroke"
       d="M 25.599609,4.4003906 4.4003906,25.599609 A 15,15 0 0 0 15,30 15,15 0 0 0 30,15 15,15 0 0 0 25.599609,4.4003906 Z"
       id="path4878" />
    <path
       inkscape:connector-curvature="0"
       style="fill:#7f8fa6;fill-opacity:1;stroke:none;stroke-width:0.53149611;stroke-linecap:butt;stroke-linejoin:miter;stroke-miterlimit:4;stroke-dasharray:none;stroke-opacity:1;paint-order:markers fill stroke"
       d="M 14.966797,5.4160156 A 6.8763139,6.8763139 0 0 0 8.0898438,12.292969 6.8763139,6.8763139 0 0 0 11.21875,18.050781 11.370637,14.247003 0 0 0 4.5703125,25.759766 15,15 0 0 0 15,30 a 15,15 0 0 0 10.380859,-4.177734 11.370637,14.247003 0 0 0 -6.666015,-7.767578 6.8763139,6.8763139 0 0 0 3.126953,-5.761719 6.8763139,6.8763139 0 0 0 -6.875,-6.8769534 z"
       id="path4880" />
    <path
       inkscape:connector-curvature="0"
       style="fill:#718093;fill-opacity:1;stroke:none;stroke-width:0.5324738;stroke-linecap:butt;stroke-linejoin:miter;stroke-miterlimit:4;stroke-dasharray:none;stroke-opacity:1;paint-order:markers fill stroke"
       d="M 21.001953,8.9980469 4.765625,25.294165 A 11.370637,14.299468 0 0 0 4.5820312,25.831292 15,15.055238 0 0 0 15,30.07734 15,15.055238 0 0 0 25.380859,25.884221 11.370637,14.299468 0 0 0 18.714844,18.088039 6.8763139,6.901636 0 0 0 21.841797,12.305103 6.8763139,6.901636 0 0 0 21.001953,8.9980469 Z"
       id="path4882" />
  </g>
</svg>
